<svg id="Layer_1" data-name="Layer 1" xmlns="http://www.w3.org/2000/svg" xmlns:xlink="http://www.w3.org/1999/xlink" viewBox="0 0 1296.04 254.55"><defs><style>.cls-1{fill:#063678;}.cls-2{stroke:#1b62c8;fill:url(#未命名的渐变_61);}.cls-2,.cls-3{stroke-miterlimit:10;}.cls-3{stroke:#6b35d8;fill:url(#未命名的渐变_165);}</style><linearGradient id="未命名的渐变_61" x1="169.61" y1="398.95" x2="327.39" y2="203.5" gradientUnits="userSpaceOnUse"><stop offset="0" stop-color="#1b62c8"/><stop offset="0.88" stop-color="#40d0db"/></linearGradient><linearGradient id="未命名的渐变_165" x1="100.23" y1="294.88" x2="396.02" y2="419.69" gradientUnits="userSpaceOnUse"><stop offset="0" stop-color="#6b35d8"/><stop offset="0.16" stop-color="#7430d9"/><stop offset="0.43" stop-color="#8e24dd"/><stop offset="0.77" stop-color="#b710e3"/><stop offset="1" stop-color="#d700e7"/></linearGradient></defs><path class="cls-1" d="M467,208.1h49.21c39,0,67.09,24.75,67.09,70.94,0,48.64-25.42,77.93-69.37,77.93H467Zm20.78,132h25.46c32.53,0,48.53-22.56,48.53-60.52,0-34.67-18.71-54.44-48.31-54.44H487.78Z" transform="translate(-72.95 -142.72)"/><path class="cls-1" d="M687,331.78A202.73,202.73,0,0,0,688.63,357H670.55a96.77,96.77,0,0,1-1.61-16.28c-4.28,10.64-15.23,18.22-32.76,18.22-26.91,0-35.41-17.88-35.41-33.39,0-17.18,11.26-35.14,50.39-35.14h16.07V280.24c0-10.15-2.92-20.18-20.45-20.18-15.37,0-20.44,7.18-22.12,18.53H605.09c1.55-18.2,12.13-33.71,42.24-33.71,23.55,0,39.67,9.19,39.67,34.65Zm-19.16-27.32H651.22c-25.29,0-30,10.26-30,19.77,0,10.09,6.11,18.49,19.4,18.49,20.75,0,27.26-14,27.26-36Z" transform="translate(-72.95 -142.72)"/><path class="cls-1" d="M701.58,247H718.8V215.5h20V247h21.67v16.25H738.76v66.39c0,8.88,2.2,12.61,11.5,12.61a48.17,48.17,0,0,0,8.15-.67v14.74c-4.51,1.59-11.15,1.92-15,1.92-17,0-24.59-6.57-24.59-25.24V263.29H701.58Z" transform="translate(-72.95 -142.72)"/><path class="cls-1" d="M857.58,331.78A202.73,202.73,0,0,0,859.21,357H841.13a95.72,95.72,0,0,1-1.61-16.28c-4.28,10.64-15.23,18.22-32.76,18.22-26.91,0-35.41-17.88-35.41-33.39,0-17.18,11.26-35.14,50.39-35.14h16.07V280.24c0-10.15-2.92-20.18-20.45-20.18-15.37,0-20.44,7.18-22.12,18.53H775.67c1.55-18.2,12.13-33.71,42.24-33.71,23.55,0,39.67,9.19,39.67,34.65Zm-19.16-27.32H821.79c-25.28,0-30,10.26-30,19.77,0,10.09,6.11,18.49,19.4,18.49,20.74,0,27.26-14,27.26-36Z" transform="translate(-72.95 -142.72)"/><path class="cls-1" d="M899.7,314.57c2.77,18.22,15,27.44,32.35,27.44,17.69,0,28.35-8.79,28.35-24.22,0-15.92-7.85-22.64-33.1-30.37-31.8-9.5-43.69-20.24-43.69-41.62,0-24.4,18.64-39.65,46.46-39.65,32.74,0,46.66,18.83,48.27,40.4H957.83c-2.2-14.41-10.27-23.81-28.21-23.81-16.67,0-25,8.09-25,21.12,0,13.43,7.69,18.49,31.05,25.5,36.95,11.13,46,25.4,46,46.07,0,24.68-16.94,43.25-50.63,43.25-31.19,0-50-16.55-52-44.11Z" transform="translate(-72.95 -142.72)"/><path class="cls-1" d="M1025.56,199.75v62.6c5.3-10.26,16-17.47,32.31-17.47,16.71,0,34.59,8.84,34.59,39.52V357H1072.6V287.73c0-15.84-6.07-25.56-21.6-25.56-16.92,0-25.44,11.31-25.44,32.37V357H1005.5V199.75Z" transform="translate(-72.95 -142.72)"/><path class="cls-1" d="M1123.18,199.75h20.06v24h-20.06Zm0,47.29h20.06V357h-20.06Z" transform="translate(-72.95 -142.72)"/><path class="cls-1" d="M1177.15,357V263.29h-16.54V247h16.54V234c0-19.87,7.46-35.91,30.59-35.91a34.56,34.56,0,0,1,10.71,1.5v16.68a36.83,36.83,0,0,0-8.63-.88c-9.35,0-12.7,6.26-12.7,18V247h20v16.25h-20V357Z" transform="translate(-72.95 -142.72)"/><path class="cls-1" d="M1216.55,247h17.21V215.5h20V247h21.67v16.25h-21.67v66.39c0,8.88,2.19,12.61,11.5,12.61a48.35,48.35,0,0,0,8.15-.67v14.74c-4.52,1.59-11.15,1.92-15,1.92-17,0-24.6-6.57-24.6-25.24V263.29h-17.21Z" transform="translate(-72.95 -142.72)"/><path class="cls-1" d="M1305.31,324.81c1.9,12,10.76,18.75,23.57,18.75,14.24,0,20.11-7.26,20.11-16.19,0-9.41-6.85-14.14-25.13-19.12-27.27-7.46-34.29-17.34-34.29-32.24,0-14.38,9.69-31.13,37.82-31.13,27,0,37.75,14.74,39.16,32h-19.66c-1.59-8.34-6-16.61-20.42-16.61-11.5,0-17,5.52-17,14.06,0,7.75,4.18,11.87,22.2,16.59,28.39,7.51,37.32,17.31,37.32,34.76,0,20.83-16.69,33.27-40.73,33.27-23.56,0-40.6-11-42.74-34.1Z" transform="translate(-72.95 -142.72)"/><g id="LOGO"><path class="cls-2" d="M147,332.87H83.64a10.19,10.19,0,0,1-10.19-10.2c0-4.09,2-8,5.87-9.3,39.21-13.55,55.32-51.65,64.65-85.8,7.16-23.53,19.62-84.35,51.3-84.35s44.15,60.82,51.3,84.35c15.05,49.43,29.07,74.74,64.68,85.74a75.52,75.52,0,0,0,18.81,2.78h45.72l-2.47-1.73c-53.27-36.7-58-102.42-86.45-102.42-10.45,0-17.7,8.87-25.33,21.91-2.7-7.5-4.95-15.06-6.94-22.32-.66-2.19-1.37-4.7-2.14-7.45,10-14.06,20.69-23.61,34.41-23.61,46.31,0,57.67,108.79,127.57,132.41a10.3,10.3,0,0,1,7.23,9.79,10.19,10.19,0,0,1-10.19,10.2H325.16c-16.62,0-37.62-7.19-53.14-17.81-51.1-34.95-51.35-137.17-76.75-137.17s-25.64,102.22-76.74,137.17l-1.6,1h26.91a49.49,49.49,0,0,0,7.29-.94c10.07-2.34,42.92-14.2,68.17-56.35a262.27,262.27,0,0,0,10.92,26.94,118.59,118.59,0,0,1-29.81,28.62C179.57,328.28,157.88,332.87,147,332.87Z" transform="translate(-72.95 -142.72)"/><path class="cls-3" d="M247.55,396.78a10.13,10.13,0,0,0,7-2.84c19.56-18.3,49.73-20.09,64.42-21.91,22.2-2.77,66.45-4.79,92.44-4.79a10.2,10.2,0,1,0,0-20.39H83.64a10.2,10.2,0,0,0,0,20.39c26,0,70.24,2,92.45,4.79,14.68,1.82,44.86,3.61,64.41,21.91A10.15,10.15,0,0,0,247.55,396.78Z" transform="translate(-72.95 -142.72)"/></g></svg>